<svg width="104" height="109" viewBox="0 0 104 109" fill="none" xmlns="http://www.w3.org/2000/svg">
<path d="M22.8766 88.8757L18.2686 101.44H15.2086L10.6006 88.8757H13.3006L16.7566 98.8657L20.1946 88.8757H22.8766ZM25.6655 90.2797C25.2215 90.2797 24.8495 90.1417 24.5495 89.8657C24.2615 89.5777 24.1175 89.2237 24.1175 88.8037C24.1175 88.3837 24.2615 88.0357 24.5495 87.7597C24.8495 87.4717 25.2215 87.3277 25.6655 87.3277C26.1095 87.3277 26.4755 87.4717 26.7635 87.7597C27.0635 88.0357 27.2135 88.3837 27.2135 88.8037C27.2135 89.2237 27.0635 89.5777 26.7635 89.8657C26.4755 90.1417 26.1095 90.2797 25.6655 90.2797ZM26.9075 91.4677V101.44H24.3875V91.4677H26.9075ZM33.2133 101.602C32.3973 101.602 31.6653 101.458 31.0173 101.17C30.3693 100.87 29.8533 100.468 29.4693 99.9637C29.0973 99.4597 28.8933 98.9017 28.8573 98.2897H31.3953C31.4433 98.6737 31.6293 98.9917 31.9533 99.2437C32.2893 99.4957 32.7033 99.6217 33.1953 99.6217C33.6753 99.6217 34.0473 99.5257 34.3113 99.3337C34.5873 99.1417 34.7253 98.8957 34.7253 98.5957C34.7253 98.2717 34.5573 98.0317 34.2213 97.8757C33.8973 97.7077 33.3753 97.5277 32.6553 97.3357C31.9113 97.1557 31.2993 96.9697 30.8193 96.7777C30.3513 96.5857 29.9433 96.2917 29.5953 95.8957C29.2593 95.4997 29.0913 94.9657 29.0913 94.2937C29.0913 93.7417 29.2473 93.2377 29.5593 92.7817C29.8833 92.3257 30.3393 91.9657 30.9273 91.7017C31.5273 91.4377 32.2293 91.3057 33.0333 91.3057C34.2213 91.3057 35.1693 91.6057 35.8773 92.2057C36.5853 92.7937 36.9753 93.5917 37.0473 94.5997H34.6353C34.5993 94.2037 34.4313 93.8917 34.1313 93.6637C33.8433 93.4237 33.4533 93.3037 32.9613 93.3037C32.5053 93.3037 32.1513 93.3877 31.8993 93.5557C31.6593 93.7237 31.5393 93.9577 31.5393 94.2577C31.5393 94.5937 31.7073 94.8517 32.0433 95.0317C32.3793 95.1997 32.9013 95.3737 33.6093 95.5537C34.3293 95.7337 34.9233 95.9197 35.3913 96.1117C35.8593 96.3037 36.2613 96.6037 36.5973 97.0117C36.9453 97.4077 37.1253 97.9357 37.1373 98.5957C37.1373 99.1717 36.9753 99.6877 36.6513 100.144C36.3393 100.6 35.8833 100.96 35.2833 101.224C34.6953 101.476 34.0053 101.602 33.2133 101.602ZM40.4839 90.2797C40.0399 90.2797 39.6679 90.1417 39.3679 89.8657C39.0799 89.5777 38.9359 89.2237 38.9359 88.8037C38.9359 88.3837 39.0799 88.0357 39.3679 87.7597C39.6679 87.4717 40.0399 87.3277 40.4839 87.3277C40.9279 87.3277 41.2939 87.4717 41.5819 87.7597C41.8819 88.0357 42.0319 88.3837 42.0319 88.8037C42.0319 89.2237 41.8819 89.5777 41.5819 89.8657C41.2939 90.1417 40.9279 90.2797 40.4839 90.2797ZM41.7259 91.4677V101.44H39.2059V91.4677H41.7259ZM48.6436 101.602C47.6836 101.602 46.8196 101.392 46.0516 100.972C45.2836 100.54 44.6776 99.9337 44.2336 99.1537C43.8016 98.3737 43.5856 97.4737 43.5856 96.4537C43.5856 95.4337 43.8076 94.5337 44.2516 93.7537C44.7076 92.9737 45.3256 92.3737 46.1056 91.9537C46.8856 91.5217 47.7556 91.3057 48.7156 91.3057C49.6756 91.3057 50.5456 91.5217 51.3256 91.9537C52.1056 92.3737 52.7176 92.9737 53.1616 93.7537C53.6176 94.5337 53.8456 95.4337 53.8456 96.4537C53.8456 97.4737 53.6116 98.3737 53.1436 99.1537C52.6876 99.9337 52.0636 100.54 51.2716 100.972C50.4916 101.392 49.6156 101.602 48.6436 101.602ZM48.6436 99.4057C49.0996 99.4057 49.5256 99.2977 49.9216 99.0817C50.3296 98.8537 50.6536 98.5177 50.8936 98.0737C51.1336 97.6297 51.2536 97.0897 51.2536 96.4537C51.2536 95.5057 51.0016 94.7797 50.4976 94.2757C50.0056 93.7597 49.3996 93.5017 48.6796 93.5017C47.9596 93.5017 47.3536 93.7597 46.8616 94.2757C46.3816 94.7797 46.1416 95.5057 46.1416 96.4537C46.1416 97.4017 46.3756 98.1337 46.8436 98.6497C47.3236 99.1537 47.9236 99.4057 48.6436 99.4057ZM61.2201 91.3237C62.4081 91.3237 63.3681 91.7017 64.1001 92.4577C64.8321 93.2017 65.1981 94.2457 65.1981 95.5897V101.44H62.6781V95.9317C62.6781 95.1397 62.4801 94.5337 62.0841 94.1137C61.6881 93.6817 61.1481 93.4657 60.4641 93.4657C59.7681 93.4657 59.2161 93.6817 58.8081 94.1137C58.4121 94.5337 58.2141 95.1397 58.2141 95.9317V101.44H55.6941V91.4677H58.2141V92.7097C58.5501 92.2777 58.9761 91.9417 59.4921 91.7017C60.0201 91.4497 60.5961 91.3237 61.2201 91.3237ZM81.2925 88.8757V101.44H78.7725V93.2677L75.4065 101.44H73.4985L70.1145 93.2677V101.44H67.5945V88.8757H70.4565L74.4525 98.2177L78.4485 88.8757H81.2925ZM93.054 96.2377C93.054 96.5977 93.03 96.9217 92.982 97.2097H85.692C85.752 97.9297 86.004 98.4937 86.448 98.9017C86.892 99.3097 87.438 99.5137 88.086 99.5137C89.022 99.5137 89.688 99.1117 90.084 98.3077H92.802C92.514 99.2677 91.962 100.06 91.146 100.684C90.33 101.296 89.328 101.602 88.14 101.602C87.18 101.602 86.316 101.392 85.548 100.972C84.792 100.54 84.198 99.9337 83.766 99.1537C83.346 98.3737 83.136 97.4737 83.136 96.4537C83.136 95.4217 83.346 94.5157 83.766 93.7357C84.186 92.9557 84.774 92.3557 85.53 91.9357C86.286 91.5157 87.156 91.3057 88.14 91.3057C89.088 91.3057 89.934 91.5097 90.678 91.9177C91.434 92.3257 92.016 92.9077 92.424 93.6637C92.844 94.4077 93.054 95.2657 93.054 96.2377ZM90.444 95.5177C90.432 94.8697 90.198 94.3537 89.742 93.9697C89.286 93.5737 88.728 93.3757 88.068 93.3757C87.444 93.3757 86.916 93.5677 86.484 93.9517C86.064 94.3237 85.806 94.8457 85.71 95.5177H90.444Z" fill="white"/>
<path d="M13.9385 37.9277L51.866 0.000125576L89.7936 37.9277L79.1463 61.8305L51.866 75.8553L25.5981 62.5749L13.9385 37.9277ZM88.6087 37.9277L51.866 1.18508L15.1234 37.9277L51.866 74.6703L88.6087 37.9277ZM51.866 7.11124L85.0531 40.2983L51.866 73.4854L18.679 40.2983L51.866 7.11124ZM83.8675 40.2976L51.866 8.2962L19.8646 40.2976L51.866 72.299L83.8675 40.2976ZM51.2736 13.6299L80.3119 42.6682L51.866 71.1141L22.8277 42.0757L51.2736 13.6299ZM79.1262 42.6689L51.2729 14.8155L24.0127 42.0757L51.866 69.9291L79.1262 42.6689ZM50.6804 20.1492L75.5707 45.0395L51.866 68.7442L26.9757 43.8539L50.6804 20.1492ZM74.3857 45.0395L50.6804 21.3342L28.1607 43.8539L51.866 67.5592L74.3857 45.0395ZM50.0879 26.6679L70.8295 47.4094L51.866 66.3729L31.1245 45.6313L50.0879 26.6679ZM69.6445 47.4094L50.0879 27.8528L32.3094 45.6313L51.866 65.1879L69.6445 47.4094ZM50.0886 33.7797L66.089 49.78L51.866 64.003L35.8657 48.0026L50.0886 33.7797ZM64.904 49.78L50.0886 34.9646L37.0506 48.0026L51.866 62.818L64.904 49.78ZM50.0886 40.8908L61.3484 52.1506L51.866 61.633L40.6062 50.3732L50.0886 40.8908ZM60.1628 52.1499L50.0886 42.0757L41.7918 50.3725L51.866 60.4467L60.1628 52.1499Z" fill="url(#paint0_linear_1_264)"/>
<path d="M13.9385 37.9277L51.866 0.000125576L89.7936 37.9277L79.1463 61.8305L51.866 75.8553L25.5981 62.5749L13.9385 37.9277ZM88.6087 37.9277L51.866 1.18508L15.1234 37.9277L51.866 74.6703L88.6087 37.9277ZM51.866 7.11124L85.0531 40.2983L51.866 73.4854L18.679 40.2983L51.866 7.11124ZM83.8675 40.2976L51.866 8.2962L19.8646 40.2976L51.866 72.299L83.8675 40.2976ZM51.2736 13.6299L80.3119 42.6682L51.866 71.1141L22.8277 42.0757L51.2736 13.6299ZM79.1262 42.6689L51.2729 14.8155L24.0127 42.0757L51.866 69.9291L79.1262 42.6689ZM50.6804 20.1492L75.5707 45.0395L51.866 68.7442L26.9757 43.8539L50.6804 20.1492ZM74.3857 45.0395L50.6804 21.3342L28.1607 43.8539L51.866 67.5592L74.3857 45.0395ZM50.0879 26.6679L70.8295 47.4094L51.866 66.3729L31.1245 45.6313L50.0879 26.6679ZM69.6445 47.4094L50.0879 27.8528L32.3094 45.6313L51.866 65.1879L69.6445 47.4094ZM50.0886 33.7797L66.089 49.78L51.866 64.003L35.8657 48.0026L50.0886 33.7797ZM64.904 49.78L50.0886 34.9646L37.0506 48.0026L51.866 62.818L64.904 49.78ZM50.0886 40.8908L61.3484 52.1506L51.866 61.633L40.6062 50.3732L50.0886 40.8908ZM60.1628 52.1499L50.0886 42.0757L41.7918 50.3725L51.866 60.4467L60.1628 52.1499Z" stroke="white"/>
<defs>
<linearGradient id="paint0_linear_1_264" x1="51.2736" y1="75.2628" x2="52.1625" y2="-1.48123" gradientUnits="userSpaceOnUse">
<stop stop-color="white"/>
<stop offset="1" stop-color="#8C4C9C" stop-opacity="0.15"/>
</linearGradient>
</defs>
</svg>
