<svg width="41" height="41" viewBox="0 0 41 41" fill="none" xmlns="http://www.w3.org/2000/svg">
<path d="M-0.000541245 20.2117L20.2114 -0.000188873L40.4233 20.2117L34.7492 32.95L20.2114 40.4237L6.21357 33.3464L-0.000541245 20.2117ZM39.7922 20.2117L20.2121 0.63165L0.631988 20.2117L20.2121 39.7918L39.7922 20.2117ZM20.2121 3.79015L37.8973 21.4754L20.2121 39.1607L2.52681 21.4754L20.2121 3.79015ZM37.2655 21.4747L20.2121 4.4213L3.15796 21.4754L20.2114 38.5288L37.2655 21.4747ZM19.8958 7.26354L35.3707 22.7384L20.2121 37.897L4.73721 22.4221L19.8958 7.26354ZM34.7395 22.7384L19.8965 7.89538L5.36905 22.4228L20.2121 37.2659L34.7395 22.7384ZM19.5802 10.7376L32.844 24.0014L20.2114 36.634L6.94761 23.3702L19.5802 10.7376ZM32.2129 24.0014L19.5802 11.3688L7.57945 23.3696L20.2121 36.0022L32.2129 24.0014ZM19.2647 14.2117L30.3174 25.2644L20.2114 35.3703L9.1587 24.3177L19.2647 14.2117ZM29.6862 25.2644L19.2647 14.8428L9.79054 24.317L20.2121 34.7385L29.6862 25.2644ZM19.2647 18.0013L27.7914 26.5281L20.2121 34.1074L11.6854 25.5806L19.2647 18.0013ZM27.1595 26.5274L19.2647 18.6325L12.3165 25.5806L20.2114 33.4755L27.1595 26.5274ZM19.2647 21.791L25.2647 27.791L20.2121 32.8437L14.212 26.8436L19.2647 21.791ZM24.6336 27.791L19.2647 22.4221L14.8432 26.8436L20.2121 32.2125L24.6336 27.791Z" fill="url(#paint0_linear_1_364)"/>
<path d="M-0.000541245 20.2117L20.2114 -0.000188873L40.4233 20.2117L34.7492 32.95L20.2114 40.4237L6.21357 33.3464L-0.000541245 20.2117ZM39.7922 20.2117L20.2121 0.63165L0.631988 20.2117L20.2121 39.7918L39.7922 20.2117ZM20.2121 3.79015L37.8973 21.4754L20.2121 39.1607L2.52681 21.4754L20.2121 3.79015ZM37.2655 21.4747L20.2121 4.4213L3.15796 21.4754L20.2114 38.5288L37.2655 21.4747ZM19.8958 7.26354L35.3707 22.7384L20.2121 37.897L4.73721 22.4221L19.8958 7.26354ZM34.7395 22.7384L19.8965 7.89538L5.36905 22.4228L20.2121 37.2659L34.7395 22.7384ZM19.5802 10.7376L32.844 24.0014L20.2114 36.634L6.94761 23.3702L19.5802 10.7376ZM32.2129 24.0014L19.5802 11.3688L7.57945 23.3696L20.2121 36.0022L32.2129 24.0014ZM19.2647 14.2117L30.3174 25.2644L20.2114 35.3703L9.1587 24.3177L19.2647 14.2117ZM29.6862 25.2644L19.2647 14.8428L9.79054 24.317L20.2121 34.7385L29.6862 25.2644ZM19.2647 18.0013L27.7914 26.5281L20.2121 34.1074L11.6854 25.5806L19.2647 18.0013ZM27.1595 26.5274L19.2647 18.6325L12.3165 25.5806L20.2114 33.4755L27.1595 26.5274ZM19.2647 21.791L25.2647 27.791L20.2121 32.8437L14.212 26.8436L19.2647 21.791ZM24.6336 27.791L19.2647 22.4221L14.8432 26.8436L20.2121 32.2125L24.6336 27.791Z" stroke="white"/>
<defs>
<linearGradient id="paint0_linear_1_364" x1="19.8961" y1="40.1078" x2="20.3698" y2="-0.789384" gradientUnits="userSpaceOnUse">
<stop stop-color="white"/>
<stop offset="1" stop-color="#8C4C9C" stop-opacity="0.15"/>
</linearGradient>
</defs>
</svg>
